<?xml version="1.0" encoding="UTF-8"?>
<svg version="1.1" viewBox="0 0 523 569" xmlns="http://www.w3.org/2000/svg">
<title>Lamington Logo</title>
<desc>Lamington helps you build EOS smart contracts.</desc>
<g fill="none" fill-rule="evenodd">
<g transform="translate(-29 -5)">
<g transform="translate(29 5)">
<g transform="translate(57.286 431.72)" fill="#231F20">
<path d="m4.817 2.8422e-14c2.194 0 3.586 1.522 4.176 4.564-0.429 30.704-0.643 55.655-0.643 74.851 0.161 18.81 0.374 28.214 0.643 28.214 2.569 0.166 4.443 0.249 5.621 0.249 7.44 0 15.524-0.221 24.25-0.664 1.928 0 3.238 1.439 3.934 4.315 0 2.601-1.82 4.121-5.46 4.564-10.92 0.277-18.496 0.415-22.724 0.415-7.978 0-12.286-1.079-12.928-3.237-1.125 0-1.686-11.285-1.686-33.856 0-20.303 0.213-45.253 0.642-74.851 0.534-3.042 1.927-4.564 4.175-4.564"/>
<path d="m59.019 95.762c0 6.805 3.533 10.207 10.6 10.207h1.926c5.246-0.441 7.87-1.105 7.87-1.991 0-10.567-0.75-21.492-2.249-32.778h-0.241c-11.937 3.983-17.906 12.17-17.906 24.562m9.957-49.125h0.883c6.316 0 10.761 4.012 13.33 12.032 3.052 12.891 4.577 27.938 4.577 45.143v7.552c-0.268 3.43-1.66 5.144-4.176 5.144-1.445 0-2.838-0.996-4.175-2.987h-0.161c-1.714 0.387-4.095 0.747-7.146 1.079h-3.132c-8.19 0-13.892-3.762-17.103-11.286-0.803-2.157-1.206-4.813-1.206-7.966 0-15.157 7.576-25.862 22.725-32.114 1.231-0.443 1.928-0.664 2.088-0.664-0.857-4.868-2.864-7.303-6.023-7.303-3.211 0-8.084 2.435-14.614 7.303l-1.284 0.249c-2.784-0.664-4.176-2.103-4.176-4.316 0-2.821 3.907-6.057 11.724-9.709 3.212-1.437 5.834-2.157 7.869-2.157"/>
<path d="m119.72 47.466h0.643c5.191 0 9.501 3.681 12.927 11.037 4.389-4.481 8.565-6.722 12.527-6.722h1.686c7.173 0 11.777 7.996 13.812 23.983 0.695 8.796 1.044 15.102 1.044 18.92-0.269 12.503-0.857 19.446-1.767 20.828-0.59 0.554-1.605 0.886-3.051 0.996-2.784-0.664-4.175-2.102-4.175-4.315 0.266-2.324 0.481-8.16 0.642-17.509 0-12.336-1.179-22.406-3.533-30.206-1.125-2.268-2.116-3.622-2.972-4.067h-0.803c-4.175 0-7.656 3.32-10.438 9.958 0.803 6.473 1.204 13.859 1.204 22.157v2.075c0 12.171-0.59 18.948-1.767 20.33-1.017 0.886-2.087 1.328-3.211 1.328-2.248 0-3.642-1.493-4.176-4.481 0.534-7.634 0.803-14.107 0.803-19.417 0-19.141-2.222-30.954-6.665-35.434-0.642-0.553-1.473-0.83-2.489-0.83-5.514 0-9.343 9.073-11.483 27.218-0.535 2.103-0.803 7.856-0.803 17.26v10.788c-0.321 3.431-1.714 5.145-4.176 5.145-2.944 0-4.416-2.378-4.416-7.137 0-7.136 0.08-12.668 0.241-16.596-0.161-9.68-0.241-19.887-0.241-30.621v-7.8c0.322-3.429 1.712-5.145 4.176-5.145 2.461 0 3.854 1.716 4.175 5.145v0.664h0.241c3.693-5.033 7.709-7.552 12.045-7.552"/>
<path d="m175.46 48.13c2.783 0.664 4.176 2.104 4.176 4.315l0.642 59.748c-0.642 2.877-2.035 4.315-4.175 4.315-2.785-0.664-4.176-2.102-4.176-4.315l-0.642-59.748c0.642-2.876 2.033-4.315 4.175-4.315m-0.24-15.767c2.676 0 4.201 1.716 4.577 5.146-0.536 3.209-2.062 4.812-4.577 4.812-2.624 0-4.15-1.742-4.577-5.227 0.534-3.153 2.059-4.731 4.577-4.731"/>
<path d="m212.19 47.466h0.643c9.154 0 14.72 9.931 16.702 29.791 0.267 6.087 0.401 11.176 0.401 15.269v0.249c-0.054 12.282-0.616 19.53-1.686 21.742-1.072 1.161-2.168 1.742-3.292 1.742-2.248 0-3.641-1.493-4.176-4.481 0.535-7.634 0.804-14.107 0.804-19.417 0-19.141-2.223-30.954-6.666-35.434-0.642-0.553-1.472-0.83-2.489-0.83-5.514 0-9.343 9.073-11.483 27.218-0.535 2.103-0.803 7.856-0.803 17.26v10.788c-0.321 3.431-1.714 5.145-4.176 5.145-2.944 0-4.416-2.378-4.416-7.137 0-7.136 0.08-12.668 0.241-16.596-0.161-9.68-0.241-19.887-0.241-30.621v-7.8c0.322-3.429 1.712-5.145 4.176-5.145 2.461 0 3.854 1.716 4.175 5.145v0.664h0.241c3.693-5.033 7.709-7.552 12.045-7.552"/>
<path d="m246.86 78.336c0 11.617 2.516 20.387 7.548 26.306 2.409 1.438 4.202 2.157 5.38 2.157h0.241c3.425 0 6.075-3.236 7.949-9.709 0.482-2.157 0.884-10.842 1.204-26.057-0.214-3.54-0.561-6.417-1.043-8.63-0.642-2.101-1.901-3.9-3.774-5.393-1.928-1.328-4.497-1.992-7.709-1.992-4.39 0-7.442 4.675-9.154 14.024-0.429 3.209-0.642 6.307-0.642 9.294m8.993-31.948h1.044c5.031 0 9.126 1.244 12.285 3.734h0.403c1.39-1.77 2.729-2.656 4.014-2.656 2.195 0 3.586 1.522 4.176 4.564 0 35.407-1.393 59.943-4.176 73.606-2.73 7.745-7.255 11.618-13.57 11.618-6.745 0-12.607-1.938-17.586-5.81-0.429-0.995-0.696-1.853-0.803-2.572 0.643-2.877 2.033-4.315 4.176-4.315l9.796 3.817c2.088 0.166 3.479 0.249 4.176 0.249 2.622 0 4.497-1.659 5.621-4.978 0.588-1.606 1.097-4.842 1.525-9.709-2.944 0.995-5.112 1.493-6.504 1.493h-0.241c-10.438 0-17.318-8.27-20.637-24.812-0.696-4.425-1.044-8.435-1.044-12.032v-0.664c0-15.323 4.096-25.476 12.287-30.455 2.675-0.718 4.362-1.078 5.058-1.078"/>
<path d="m303.77 13.775c2.194 0 3.586 1.522 4.176 4.564-1.285 17.094-1.928 27.882-1.928 32.363v0.249c9.743 0.278 15.524 0.886 17.345 1.826 0.964 0.664 1.525 1.77 1.686 3.319-0.642 2.877-2.035 4.315-4.175 4.315-0.803 0-5.809-0.276-15.016-0.829-0.161 1.438-0.241 2.517-0.241 3.236v3.402c0 23.733 1.819 37.121 5.46 40.163 1.177 0.996 2.221 1.495 3.131 1.495h0.162c1.766 0 4.147-3.098 7.146-9.294 0.803-1.051 1.9-1.632 3.292-1.744 2.783 0.664 4.176 2.104 4.176 4.316-1.714 5.864-4.846 10.484-9.396 13.857-1.714 0.996-3.292 1.494-4.737 1.494h-1.525c-4.23 0-8.111-3.097-11.644-9.294-2.944-6.306-4.416-19.75-4.416-40.33v-5.144l0.24-2.655c-4.657-0.055-7.923-0.775-9.796-2.158-0.751-0.83-1.178-1.687-1.285-2.573 0.643-2.876 2.034-4.314 4.176-4.314 1.016 0 3.372 0.138 7.066 0.415v-0.415c0.856-23.29 1.9-34.936 3.132-34.936 1.016-0.774 2.007-1.217 2.971-1.328"/>
<path d="m344.34 85.888c0 9.35 1.124 15.241 3.372 17.675 2.516 2.877 5.3 4.315 8.352 4.315 4.548 0 7.6-5.836 9.153-17.51 0.535-3.319 0.804-6.915 0.804-10.788 0-11.617-2.357-19.305-7.067-23.068-1.66-0.83-3.48-1.245-5.461-1.245-2.035 0-3.908 1.273-5.621 3.817-2.355 5.367-3.532 14.302-3.532 26.804m9.153-39.251c11.831 0 18.737 8.769 20.718 26.306 0.107 2.434 0.16 4.812 0.16 7.135 0 10.9-1.927 20.443-5.781 28.629-3.587 5.202-7.763 7.801-12.526 7.801h-0.884c-6.156 0-11.591-3.734-16.301-11.203-1.927-3.927-2.891-10.344-2.891-19.252v-0.58c0-20.58 3.265-32.667 9.797-36.264 2.622-1.603 5.192-2.461 7.708-2.572"/>
<path d="m403.87 47.466h0.643c9.154 0 14.72 9.931 16.702 29.791 0.267 6.087 0.401 11.176 0.401 15.269v0.249c-0.054 12.282-0.616 19.53-1.686 21.742-1.072 1.161-2.168 1.742-3.292 1.742-2.248 0-3.641-1.493-4.176-4.481 0.535-7.634 0.804-14.107 0.804-19.417 0-19.141-2.223-30.954-6.666-35.434-0.642-0.553-1.472-0.83-2.489-0.83-5.514 0-9.343 9.073-11.483 27.218-0.535 2.103-0.803 7.856-0.803 17.26v10.788c-0.321 3.431-1.714 5.145-4.176 5.145-2.944 0-4.416-2.378-4.416-7.137 0-7.136 0.08-12.668 0.241-16.596-0.161-9.68-0.241-19.887-0.241-30.621v-7.8c0.322-3.429 1.713-5.145 4.176-5.145 2.462 0 3.855 1.716 4.176 5.145v0.664h0.24c3.694-5.033 7.709-7.552 12.045-7.552"/>
</g>
<path d="m226.93 13.549c-18.702 0.012-37.404 0.227-56.106 0.79-27.573 0.829-55.06 1.564-76.211 20.092-21.692 19-42.205 39.446-61.281 61.068-10.976 12.443-17.587 23.059-17.38 40.144 0.722 59.579-1.821 118.05 5.435 177.08 1.526 12.415 3.192 24.801 5.044 37.145 0.864 5.764 1.781 11.669 5.01 16.67 10.403 16.115 35.866 18.256 52.989 20.141 41.958 4.617 86.651 3.602 128.47 3.677 48.704 0.087 97.569-2.495 146.26-3.739 9.245-0.236 18.557-0.48 27.587-2.476 37.425-8.275 70.717-44.22 100.62-66.613 24.72-18.515 22.021-41.635 22.949-70.238 2.248-69.75 3.125-141.06-1.814-210.65-0.414-5.836-0.921-11.959-4.128-16.853-6.177-9.425-19.327-10.505-30.596-10.615-83.121-0.805-163.87 4.329-246.84 4.381" fill="#796767"/>
<path d="m144.59 10.692c-11.425 1.114-22.755 3.165-33.376 7.65-11.653 4.921-20.701 12.896-29.952 21.327-19.771 18.016-39.988 37.092-56.404 58.285-6.535 8.436-11.503 17.927-13.517 28.478-2.4 12.58-1.48 25.78-1.515 38.519-0.161 57.185 1.74 113.92 9.546 170.63 1.677 12.194 1.909 26.509 9.979 36.515 5.898 7.314 14.629 11.614 23.466 14.295 9.139 2.771 18.707 3.873 28.168 4.91 13.017 1.427 26.056 2.467 39.138 3.073 28.128 1.305 56.294 1.003 84.442 0.978 29.152-0.028 58.27-0.592 87.406-1.564 14.498-0.483 28.994-1.012 43.493-1.479 14.01-0.451 28.235-0.135 42.176-1.694 23.625-2.641 44.155-14.623 62.829-28.701 9.588-7.228 18.778-14.952 27.97-22.672 8.57-7.199 17.703-13.815 26.143-21.143 15.571-13.517 19.615-32.334 20.296-52.085 1.922-55.666 3.089-111.46 1.598-167.15-0.383-14.293-0.951-28.58-1.748-42.856-0.39-6.991-0.769-13.993-1.343-20.971-0.462-5.621-1.138-11.385-3.884-16.415-4.951-9.068-14.917-12.627-24.618-13.811-13.125-1.603-26.749-0.77-39.943-0.702-58.147 0.298-116.24 2.94-174.38 3.999-14.541 0.264-29.084 0.423-43.628 0.439-0.29054 3.1605e-4 -0.53466 10.001 0 10 55.24-0.062 110.44-2.364 165.66-3.645 27.491-0.638 55.049-1.263 82.548-0.717 8.774 0.174 21.026 0.607 25.729 9.484 2.789 5.267 2.582 12.028 2.968 17.801 0.455 6.785 0.856 13.574 1.205 20.365 2.816 54.649 2.416 109.41 0.916 164.1-0.33 11.97-0.681 23.938-0.961 35.91-0.214 9.151-0.538 18.419-3.127 27.263-2.695 9.201-8.159 16.851-15.535 22.92-8.257 6.794-16.77 13.262-24.965 20.147-17.161 14.414-34.448 29.333-54.625 39.421-10.329 5.165-21.254 8.434-32.783 9.374-13.43 1.095-27.007 0.968-40.472 1.407-54.617 1.78-109.13 3.156-163.79 3.019-26.586-0.068-53.222-0.541-79.699-3.137-16.735-1.641-39.709-2.053-51.981-15.358-7.771-8.424-7.532-23.248-9.008-33.974-1.903-13.831-3.63-27.689-4.928-41.591-2.529-27.098-3.625-54.309-4.044-81.516-0.211-13.649-0.252-27.301-0.226-40.951 0.024-12.593-1.107-25.897 0.917-38.366 3.675-22.645 22.658-39.272 37.865-54.943 9.177-9.457 18.631-18.646 28.346-27.549 9.091-8.33 17.938-16.529 29.581-21.111 21.781-8.572 46.782-7.479 69.781-7.949 13.541-0.276 27.085-0.386 40.629-0.4 0.15431-1.439e-4 0.25204-10 0-10-27.332 0.027-55.111-0.513-82.345 2.143z" fill="#231F20"/>
<rect x="225" y="9" width="4" height="9" fill="#231F20"/>
<path d="m57.562 93.314c-6.74 1.31-13.48 2.619-20.22 3.929-2.367 0.46-1.365 4.075 0.996 3.616l20.221-3.929c2.366-0.46 1.364-4.075-0.997-3.616" fill="#FEFEFE"/>
<path d="m94.722 114.18c0.289 3.542 0.577 7.084 0.865 10.626 0.195 2.389 3.947 2.409 3.75 0-0.288-3.542-0.576-7.084-0.865-10.626-0.194-2.389-3.946-2.409-3.75 0" fill="#FEFEFE"/>
<path d="m65.59 112.64c-3.23 3.196-6.674 6.142-10.352 8.811-1.934 1.404-0.064 4.659 1.893 3.238 3.938-2.857 7.651-5.975 11.11-9.397 1.718-1.7-0.933-4.352-2.651-2.652" fill="#FEFEFE"/>
<path d="m28.088 119.8c-8.379-3.456-17.015-5.68-25.991-6.88-2.384-0.319-2.361 3.435 0 3.75 8.628 1.154 16.951 3.429 24.994 6.746 2.229 0.919 3.201-2.707 0.997-3.616" fill="#FEFEFE"/>
<path d="m23.648 142.27c-1.439 5.207-3.186 10.31-5.291 15.287-0.929 2.197 2.301 4.11 3.238 1.893 2.235-5.283 4.141-10.654 5.669-16.183 0.645-2.33-2.972-3.324-3.616-0.997" fill="#FEFEFE"/>
<path d="m71.576 139.78c1.423 5.311 2.846 10.621 4.27 15.932 0.624 2.328 4.242 1.34 3.615-0.997-1.423-5.311-2.846-10.622-4.269-15.932-0.624-2.328-4.243-1.34-3.616 0.997" fill="#FEFEFE"/>
<path d="m42.737 143.93c0.448 4.492 0.896 8.985 1.343 13.477 0.237 2.379 3.989 2.403 3.75 0-0.447-4.492-0.895-8.985-1.343-13.477-0.237-2.379-3.989-2.403-3.75 0" fill="#FEFEFE"/>
<path d="m61.604 174.53c2.913 5.115 5.361 10.416 7.333 15.964 0.802 2.258 4.427 1.286 3.616-0.997-2.078-5.846-4.64-11.467-7.711-16.86-1.194-2.097-4.435-0.21-3.238 1.893" fill="#FEFEFE"/>
<path d="m43.825 177.45c-1.505 2.93-3.01 5.859-4.514 8.789-1.1 2.143 2.134 4.043 3.238 1.893 1.505-2.93 3.009-5.86 4.513-8.789 1.101-2.143-2.133-4.042-3.237-1.893" fill="#FEFEFE"/>
<path d="m23.212 178.17-21.114-1.107c-2.412-0.127-2.405 3.623 0 3.75l21.114 1.107c2.412 0.126 2.405-3.624 0-3.75" fill="#FEFEFE"/>
<path d="m51.276 203.66c2.306 2.823 4.611 5.647 6.917 8.47 1.526 1.87 4.166-0.796 2.651-2.651-2.305-2.824-4.611-5.647-6.917-8.47-1.527-1.871-4.166 0.796-2.651 2.651" fill="#FEFEFE"/>
<path d="m22.807 206.09c-5.911 1.904-11.823 3.809-17.734 5.712-2.288 0.738-1.31 4.36 0.997 3.617 5.911-1.905 11.822-3.808 17.733-5.713 2.288-0.737 1.31-4.359-0.996-3.616" fill="#FEFEFE"/>
<path d="m82.835 178.56c4.028 0.795 8.058 1.591 12.087 2.387 2.357 0.465 3.366-3.149 0.997-3.616-4.029-0.796-8.059-1.592-12.088-2.387-2.356-0.466-3.366 3.148-0.996 3.616" fill="#FEFEFE"/>
<path d="m79.624 213.8 9.601 10.83c1.604 1.809 4.248-0.851 2.651-2.652-3.2-3.61-6.399-7.22-9.6-10.83-1.604-1.809-4.248 0.851-2.652 2.652" fill="#FEFEFE"/>
<path d="m63.997 232.66c0.613 3.156 1.227 6.312 1.84 9.468 0.459 2.367 4.074 1.365 3.615-0.996l-1.84-9.469c-0.459-2.367-4.074-1.365-3.615 0.997" fill="#FEFEFE"/>
<path d="m36.382 224.87c-2.381 2.82-5.038 5.398-7.98 7.632-1.898 1.44-0.032 4.699 1.892 3.238 3.208-2.435 6.14-5.139 8.74-8.219 1.547-1.833-1.092-4.498-2.652-2.651" fill="#FEFEFE"/>
<path d="m41.57 250.73c1.833 4.702 3.039 9.539 3.522 14.566 0.229 2.381 3.982 2.405 3.75 0-0.516-5.372-1.695-10.531-3.656-15.563-0.867-2.224-4.495-1.256-3.616 0.997" fill="#FEFEFE"/>
<path d="m23.187 251.22c-6.525 1.762-13.124 2.828-19.875 3.184-2.4 0.126-2.416 3.877 0 3.75 7.08-0.373 14.025-1.469 20.872-3.318 2.327-0.629 1.34-4.247-0.997-3.616" fill="#FEFEFE"/>
<path d="m60.048 288.46c1.393 4.537 2.082 9.121 2.073 13.868-5e-3 2.413 3.745 2.417 3.75 0 0.01-5.066-0.719-10.02-2.207-14.865-0.706-2.3-4.327-1.319-3.616 0.997" fill="#FEFEFE"/>
<path d="m35.929 278.64c-6.844 2.49-13.82 4.4-20.978 5.746-2.369 0.445-1.365 4.061 0.998 3.616 7.156-1.345 14.133-3.256 20.976-5.746 2.25-0.818 1.279-4.444-0.996-3.616" fill="#FEFEFE"/>
<path d="m38.995 300.19c-1.191 5.321-3.744 9.949-7.536 13.862-1.681 1.734 0.969 4.388 2.651 2.652 4.216-4.35 7.175-9.593 8.501-15.518 0.527-2.35-3.089-3.354-3.616-0.996" fill="#FEFEFE"/>
<path d="m53.058 325.03c3.743 4.184 6.585 8.947 8.429 14.253 0.788 2.265 4.412 1.291 3.616-0.997-2.061-5.93-5.209-11.231-9.394-15.907-1.612-1.802-4.256 0.857-2.651 2.651" fill="#FEFEFE"/>
<path d="m41.861 335.54c-4.801 3.932-9.601 7.863-14.401 11.795-1.869 1.53 0.798 4.17 2.652 2.651 4.8-3.931 9.601-7.862 14.4-11.794 1.869-1.53-0.798-4.17-2.651-2.652" fill="#FEFEFE"/>
<path d="m105.76 84.977c-5.575 0.609-10.539 2.627-14.921 6.133-1.884 1.507 0.785 4.145 2.652 2.652 3.532-2.826 7.778-4.544 12.269-5.035 2.374-0.259 2.4-4.012 0-3.75" fill="#FEFEFE"/>
<path d="m64.292 75.062c-5.444-5.141-11.426-9.594-17.898-13.356-2.091-1.215-3.982 2.024-1.894 3.238 6.203 3.605 11.923 7.844 17.141 12.769 1.754 1.657 4.41-0.99 2.651-2.651" fill="#FEFEFE"/>
<path d="m132.09 54.681c-3.998 4.011-8.481 7.354-13.44 10.086-2.115 1.165-0.225 4.405 1.892 3.238 5.228-2.88 9.986-6.446 14.199-10.672 1.706-1.711-0.944-4.364-2.651-2.652" fill="#FEFEFE"/>
<path d="m134.34 111.23c-5.248-1-10.302-2.565-15.152-4.815-2.175-1.009-4.082 2.222-1.893 3.237 5.146 2.388 10.474 4.132 16.048 5.194 2.358 0.449 3.368-3.164 0.997-3.616" fill="#FEFEFE"/>
<path d="m160.96 83.355c-5.222-0.561-10.124-2.186-14.656-4.834-2.088-1.22-3.978 2.02-1.893 3.238 5.127 2.995 10.654 4.713 16.549 5.346 2.396 0.257 2.378-3.495 0-3.75" fill="#FEFEFE"/>
<path d="m168.54 51.298c-4.841 2.182-9.681 4.364-14.521 6.546-2.197 0.991-0.292 4.224 1.892 3.239 4.841-2.183 9.681-4.365 14.522-6.547 2.196-0.99 0.292-4.223-1.893-3.238" fill="#FEFEFE"/>
<path d="m146.43 14.14c-1.892 5.718-4.046 11.328-6.491 16.832-0.972 2.186 2.259 4.096 3.238 1.893 2.577-5.801 4.876-11.701 6.868-17.728 0.76-2.297-2.86-3.281-3.615-0.997" fill="#FEFEFE"/>
<path d="m130.12 18.945c-5.43-5.146-10.577-10.56-15.439-16.246-1.571-1.837-4.213 0.827-2.652 2.652 4.862 5.686 10.01 11.099 15.44 16.246 1.751 1.66 4.407-0.987 2.651-2.652" fill="#FEFEFE"/>
<path d="m184.73 24.273c-4.976 1.363-9.95 2.726-14.926 4.089-2.324 0.637-1.338 4.255 0.997 3.616 4.976-1.363 9.95-2.726 14.926-4.089 2.324-0.637 1.338-4.255-0.997-3.616" fill="#FEFEFE"/>
<path d="m209 31.384c3.451 3.614 6.903 7.229 10.354 10.843 1.671 1.749 4.32-0.905 2.653-2.652-3.452-3.614-6.903-7.228-10.356-10.843-1.67-1.748-4.319 0.906-2.651 2.652" fill="#FEFEFE"/>
<path d="m194.96 52.409c2.355 3.846 4.71 7.693 7.065 11.54 1.258 2.054 4.503 0.172 3.239-1.894-2.356-3.846-4.711-7.692-7.066-11.539-1.258-2.055-4.503-0.173-3.238 1.893" fill="#FEFEFE"/>
<path d="m108.29 266.78c2.355 3.846 4.71 7.693 7.065 11.54 1.258 2.054 4.503 0.172 3.239-1.894-2.356-3.846-4.711-7.692-7.066-11.539-1.258-2.055-4.503-0.173-3.238 1.893" fill="#FEFEFE"/>
<path d="m181.78 77.661c3.824 5.198 7.914 10.175 12.291 14.917 1.641 1.777 4.287-0.879 2.651-2.651-4.159-4.507-8.069-9.218-11.704-14.159-1.415-1.923-4.671-0.055-3.238 1.893" fill="#FEFEFE"/>
<path d="m233.63 57.042c-4.933-0.421-9.714 0.653-14.038 3.048-2.111 1.169-0.222 4.409 1.892 3.238 3.785-2.096 7.847-2.903 12.146-2.536 2.404 0.205 2.391-3.546 0-3.75" fill="#FEFEFE"/>
<path d="m176.74 103.25c-0.432 4.285-0.863 8.57-1.295 12.855-0.241 2.399 3.511 2.382 3.75 0 0.432-4.285 0.863-8.57 1.295-12.855 0.242-2.399-3.51-2.382-3.75 0" fill="#FEFEFE"/>
<path d="m148.82 103.21c1.973 4.86 3.945 9.721 5.919 14.582 0.895 2.207 4.524 1.242 3.616-0.997-1.973-4.861-3.946-9.721-5.919-14.582-0.896-2.207-4.525-1.242-3.616 0.997" fill="#FEFEFE"/>
<path d="m124.5 133.45c1.286 3.982 3.009 7.771 5.18 11.35 1.25 2.06 4.494 0.178 3.237-1.893-2.008-3.31-3.61-6.769-4.801-10.454-0.739-2.287-4.361-1.309-3.616 0.997" fill="#FEFEFE"/>
<path d="m166.87 134.57c-0.069 3.351-1.573 6.185-4.055 8.387-1.808 1.606 0.851 4.25 2.652 2.652 3.199-2.84 5.064-6.755 5.153-11.039 0.051-2.414-3.699-2.414-3.75 0" fill="#FEFEFE"/>
<path d="m144.67 147.65c0.536 6.478 1.073 12.956 1.61 19.434 0.198 2.388 3.95 2.409 3.75 0-0.537-6.478-1.074-12.956-1.61-19.434-0.198-2.388-3.95-2.409-3.75 0" fill="#FEFEFE"/>
<path d="m100.61 146.54c3.153 4.563 6.307 9.126 9.459 13.69 1.363 1.972 4.615 0.1 3.238-1.893-3.153-4.563-6.305-9.127-9.459-13.69-1.363-1.972-4.614-0.099-3.238 1.893" fill="#FEFEFE"/>
<path d="m127.17 168.78c0.036 4.01-0.841 7.8-2.64 11.384-1.08 2.151 2.154 4.052 3.238 1.893 2.093-4.17 3.195-8.605 3.152-13.277-0.022-2.412-3.772-2.417-3.75 0" fill="#FEFEFE"/>
<path d="m144.4 188.69c5.261 3.344 10.023 7.27 14.305 11.8 1.661 1.758 4.309-0.897 2.651-2.652-4.493-4.754-9.543-8.877-15.062-12.386-2.043-1.299-3.927 1.946-1.894 3.238" fill="#FEFEFE"/>
<path d="m144.23 224.42c0.264 2.372 4.017 2.399 3.75 0-0.544-4.893-1.795-9.518-3.786-14.02-0.973-2.202-4.205-0.296-3.237 1.893 1.704 3.856 2.807 7.937 3.273 12.127z" fill="#FEFEFE"/>
<path d="m193.24 176.02c-5.729 1.113-11.458 2.227-17.187 3.34-2.367 0.459-1.365 4.075 0.997 3.616 5.729-1.114 11.458-2.227 17.187-3.34 2.366-0.46 1.364-4.075-0.997-3.616" fill="#FEFEFE"/>
<path d="m163.46 220.29c2.567 2.454 5.134 4.909 7.7 7.363 1.745 1.668 4.401-0.98 2.653-2.652-2.568-2.454-5.134-4.908-7.702-7.363-1.744-1.667-4.399 0.98-2.651 2.652" fill="#FEFEFE"/>
<path d="m209.74 204.29-20.139-0.882c-2.412-0.106-2.407 3.645 0 3.75l20.139 0.882c2.412 0.105 2.407-3.645 0-3.75" fill="#FEFEFE"/>
<path d="m155.09 245.84c2.381 5.107 4.763 10.215 7.145 15.322 1.018 2.185 4.251 0.283 3.237-1.892-2.381-5.108-4.763-10.215-7.145-15.323-1.018-2.185-4.252-0.283-3.237 1.893" fill="#FEFEFE"/>
<path d="m99.075 246.02c-3.078 2.464-6.155 4.929-9.233 7.393-1.883 1.508 0.785 4.147 2.652 2.651 3.077-2.464 6.154-4.928 9.232-7.393 1.884-1.508-0.785-4.146-2.651-2.651" fill="#FEFEFE"/>
<path d="m141.58 269.65c2.252 6.243 3.832 12.642 4.642 19.231 0.291 2.365 4.044 2.394 3.75 0-0.853-6.94-2.402-13.646-4.777-20.227-0.812-2.253-4.437-1.281-3.615 0.996" fill="#FEFEFE"/>
<path d="m100.5 287.22c-1.7 3.253-4.241 5.771-7.454 7.534-2.116 1.161-0.226 4.401 1.893 3.237 3.735-2.048 6.822-5.095 8.799-8.878 1.116-2.137-2.118-4.035-3.238-1.893" fill="#FEFEFE"/>
<path d="m117.12 303.72c3.674 3.425 6.109 7.628 7.167 12.542 0.508 2.357 4.124 1.359 3.616-0.997-1.183-5.501-4.021-10.365-8.132-14.196-1.763-1.644-4.421 1.002-2.651 2.651" fill="#FEFEFE"/>
<path d="m93.212 317.36c-5.798 0.73-11.596 1.461-17.395 2.191-2.362 0.297-2.391 4.051 0 3.75 5.799-0.73 11.597-1.461 17.395-2.191 2.362-0.298 2.393-4.052 0-3.75" fill="#FEFEFE"/>
<path d="m86.869 343.1c3.601 4.222 7.202 8.443 10.803 12.666 1.568 1.839 4.21-0.825 2.651-2.652-3.6-4.222-7.201-8.444-10.803-12.665-1.568-1.839-4.21 0.824-2.651 2.651" fill="#FEFEFE"/>
<path d="m61.987 355.39c-1.99 4.285-3.661 8.684-4.973 13.223-0.67 2.323 2.948 3.315 3.617 0.997 1.221-4.229 2.74-8.334 4.594-12.327 1.01-2.175-2.221-4.081-3.238-1.893" fill="#FEFEFE"/>
<path d="m86.787 54.995c0.437 5.537 1.457 10.934 3.131 16.233 0.723 2.293 4.346 1.313 3.616-0.997-1.572-4.975-2.587-10.032-2.997-15.236-0.188-2.39-3.94-2.41-3.75 0" fill="#FEFEFE"/>
<path d="m116.06 39.604-17.874-8.529c-2.168-1.034-4.072 2.198-1.894 3.238 5.959 2.843 11.917 5.686 17.875 8.529 2.167 1.034 4.073-2.198 1.893-3.238" fill="#FEFEFE"/>
<path d="m178.87 157.46c6.587-1.367 13.173-2.733 19.76-4.1 2.361-0.49 1.362-4.105-0.997-3.616-6.587 1.367-13.173 2.734-19.76 4.1-2.361 0.49-1.361 4.106 0.997 3.616" fill="#FEFEFE"/>
<path d="m196.38 116.05c3.081 4.222 6.163 8.443 9.244 12.666 1.409 1.929 4.664 0.06 3.238-1.893-3.082-4.222-6.163-8.444-9.245-12.666-1.408-1.93-4.663-0.061-3.237 1.893" fill="#FEFEFE"/>
<path d="m214.74 82.558c5.905 0.911 11.811 1.821 17.716 2.731 2.361 0.365 3.379-3.248 0.997-3.615-5.905-0.911-11.811-1.822-17.717-2.732-2.36-0.364-3.378 3.249-0.996 3.616" fill="#FEFEFE"/>
<path d="m222 109.56c3.417 2.942 6.833 5.885 10.249 8.827 1.82 1.568 4.484-1.073 2.651-2.651-3.416-2.943-6.832-5.885-10.248-8.828-1.82-1.567-4.484 1.074-2.652 2.652" fill="#FEFEFE"/>
<path d="m253.82 72.293c5.011-1.26 10.07-2.107 15.222-2.517 2.389-0.19 2.41-3.941 0-3.75-5.484 0.436-10.883 1.309-16.218 2.651-2.34 0.588-1.349 4.205 0.996 3.616" fill="#FEFEFE"/>
<path d="m241.87 39.518c2.412-4.915 5.579-9.256 9.543-13.035 1.75-1.669-0.904-4.318-2.651-2.652-4.176 3.982-7.588 8.614-10.13 13.794-1.059 2.159 2.174 4.061 3.238 1.893" fill="#FEFEFE"/>
<path d="m263.15 45.669c4.313-2.048 8.628-4.097 12.941-6.145 2.179-1.035 0.279-4.269-1.892-3.238-4.314 2.048-8.628 4.096-12.942 6.145-2.178 1.034-0.278 4.268 1.893 3.238" fill="#FEFEFE"/>
<path d="m291.04 52.714c4.779 1.097 9.559 2.195 14.337 3.292 2.349 0.54 3.351-3.075 0.997-3.616-4.779-1.097-9.558-2.195-14.337-3.292-2.349-0.54-3.351 3.075-0.997 3.616" fill="#FEFEFE"/>
<path d="m299.55 33.03c2.983-2.691 5.967-5.383 8.95-8.075 1.796-1.62-0.863-4.266-2.651-2.652l-8.95 8.076c-1.796 1.62 0.863 4.265 2.651 2.651" fill="#FEFEFE"/>
<path d="m281.76 21.119c-0.891-3.425-1.325-6.866-1.32-10.404 3e-3 -2.413-3.747-2.417-3.75 0-5e-3 3.86 0.483 7.665 1.455 11.401 0.606 2.334 4.224 1.344 3.615-0.997" fill="#FEFEFE"/>
<path d="m326.1 40.431c3.906-0.679 7.819-0.83 11.77-0.539 2.408 0.178 2.396-3.573 0-3.75-4.295-0.316-8.525-0.065-12.766 0.673-2.374 0.412-1.367 4.027 0.996 3.616" fill="#FEFEFE"/>
<path d="m332.88 21.618c0.053-4.046 0.715-7.941 1.97-11.786 0.751-2.299-2.869-3.285-3.616-0.997-1.356 4.153-2.047 8.416-2.104 12.783-0.032 2.414 3.718 2.415 3.75 0" fill="#FEFEFE"/>
<path d="m357.63 27.552c4.451-0.135 8.777 0.358 13.08 1.511 2.333 0.625 3.329-2.992 0.997-3.616-4.612-1.235-9.305-1.79-14.077-1.645-2.407 0.073-2.418 3.823 0 3.75" fill="#FEFEFE"/>
<path d="m350.46 47.315c0.622 3.418 1.245 6.836 1.868 10.253 0.432 2.372 4.046 1.367 3.615-0.996-0.622-3.418-1.245-6.836-1.867-10.254-0.432-2.371-4.047-1.366-3.616 0.997" fill="#FEFEFE"/>
<path d="m323.15 57.402c-1.771 4.108-3.543 8.216-5.314 12.325-0.946 2.193 2.284 4.105 3.238 1.892 1.771-4.108 3.543-8.216 5.314-12.324 0.946-2.193-2.284-4.105-3.238-1.893" fill="#FEFEFE"/>
<path d="m339 71.619c1.931 3.827 4.311 7.349 7.088 10.612 1.566 1.84 4.208-0.823 2.651-2.652-2.569-3.019-4.717-6.314-6.501-9.853-1.087-2.155-4.323-0.259-3.238 1.893" fill="#FEFEFE"/>
<path d="m367.17 69.135c4.767 0.283 9.533 0.565 14.301 0.848 2.41 0.142 2.402-3.608 0-3.75-4.768-0.283-9.534-0.565-14.301-0.848-2.41-0.143-2.402 3.608 0 3.75" fill="#FEFEFE"/>
<path d="m376.91 44.233c4.754-2.436 9.638-4.528 14.683-6.286 2.264-0.788 1.291-4.412-0.996-3.616-5.347 1.862-10.541 4.082-15.58 6.664-2.148 1.101-0.253 4.338 1.893 3.238" fill="#FEFEFE"/>
<path d="m384.31 17.924c1.602-5.222 3.417-10.363 5.449-15.434 0.898-2.239-2.728-3.212-3.616-0.996-2.032 5.07-3.848 10.211-5.449 15.433-0.709 2.312 2.909 3.301 3.616 0.997" fill="#FEFEFE"/>
<path d="m404.15 22.738 16.298 4.305c2.335 0.617 3.331-2.999 0.996-3.616-5.432-1.435-10.864-2.87-16.297-4.305-2.335-0.617-3.332 2.999-0.997 3.616" fill="#FEFEFE"/>
<path d="m393.07 55.449c5.378 0.076 10.64 0.734 15.869 1.995 2.345 0.566 3.346-3.049 0.997-3.616-5.55-1.338-11.158-2.049-16.866-2.129-2.414-0.034-2.415 3.716 0 3.75" fill="#FEFEFE"/>
<path d="m419.95 41.769c3.475 3.693 6.364 7.788 8.714 12.278 1.119 2.139 4.356 0.246 3.238-1.892-2.494-4.767-5.615-9.12-9.301-13.038-1.656-1.761-4.304 0.894-2.651 2.652" fill="#FEFEFE"/>
<path d="m440.98 29.367c4.367-3.813 8.573-7.795 12.62-11.947 1.687-1.729-0.963-4.384-2.651-2.652-4.047 4.152-8.253 8.134-12.62 11.948-1.822 1.59 0.839 4.233 2.651 2.651" fill="#FEFEFE"/>
<path d="m444.46 45.23c4.221 2.888 8.626 5.445 13.227 7.677 2.162 1.049 4.065-2.184 1.892-3.238-4.6-2.232-9.006-4.789-13.226-7.677-1.997-1.366-3.874 1.882-1.893 3.238" fill="#FEFEFE"/>
<path d="m461.03 31.621c5.2-1.448 10.401-2.896 15.602-4.345 2.321-0.647 1.335-4.266-0.998-3.616-5.2 1.448-10.4 2.897-15.601 4.345-2.321 0.646-1.335 4.265 0.997 3.616" fill="#FEFEFE"/>
<path d="m472.62 16.56c0.864-4.878 2.233-9.584 4.119-14.167 0.918-2.229-2.708-3.201-3.616-0.997-1.886 4.582-3.254 9.288-4.119 14.167-0.419 2.36 3.194 3.373 3.616 0.997" fill="#FEFEFE"/>
<path d="m490.51 26.234c4.953-0.112 9.762 0.493 14.53 1.835 2.327 0.655 3.321-2.962 0.997-3.616-5.079-1.429-10.252-2.088-15.527-1.969-2.409 0.054-2.418 3.804 0 3.75" fill="#FEFEFE"/>
<path d="m482.83 40.071c-1.334 4.636-1.555 9.292-0.795 14.047 0.381 2.377 3.994 1.368 3.616-0.996-0.651-4.073-0.343-8.097 0.795-12.054 0.669-2.324-2.948-3.315-3.616-0.997" fill="#FEFEFE"/>
<path d="m497.38 57.254c4.092-2.222 8.284-4.226 12.6-5.977 2.207-0.895 1.242-4.524-0.997-3.616-4.617 1.873-9.117 3.977-13.496 6.355-2.121 1.152-0.23 4.391 1.893 3.238" fill="#FEFEFE"/>
<path d="m439.36 64.665c-1.141 4.911-1.984 9.862-2.574 14.868-0.282 2.392 3.47 2.372 3.75 0 0.551-4.672 1.376-9.289 2.44-13.871 0.545-2.348-3.07-3.351-3.616-0.997" fill="#FEFEFE"/>
<path d="m452.53 73.242c2.919 3.21 5.839 6.42 8.759 9.631 1.627 1.789 4.272-0.869 2.651-2.652-2.92-3.21-5.839-6.42-8.759-9.631-1.627-1.789-4.273 0.869-2.651 2.652" fill="#FEFEFE"/>
<path d="m472.33 68.907c5.889 1.009 11.777 2.018 17.666 3.027 2.36 0.405 3.374-3.208 0.997-3.616-5.889-1.009-11.777-2.018-17.666-3.027-2.36-0.405-3.374 3.209-0.997 3.616" fill="#FEFEFE"/>
<path d="m478.7 84.057c-1.791 3.841-3.065 7.815-3.743 12.002-0.383 2.361 3.23 3.377 3.615 0.997 0.625-3.854 1.714-7.564 3.365-11.106 1.014-2.174-2.217-4.081-3.237-1.893" fill="#FEFEFE"/>
<path d="m493.38 87.165c5.052 0.878 9.9 2.356 14.549 4.532 2.172 1.018 4.078-2.214 1.892-3.238-4.942-2.314-10.064-3.975-15.444-4.91-2.36-0.41-3.374 3.203-0.997 3.616" fill="#FEFEFE"/>
<path d="m491.57 104.98c-1.192 4.072-2.385 8.144-3.577 12.216-0.68 2.32 2.937 3.311 3.615 0.996 1.193-4.071 2.386-8.143 3.578-12.215 0.68-2.321-2.937-3.312-3.616-0.997" fill="#FEFEFE"/>
<path d="m444.63 90.2c-2.499 3.407-4.997 6.814-7.496 10.222-1.429 1.948 1.824 3.82 3.238 1.892 2.498-3.406 4.997-6.814 7.495-10.221 1.429-1.948-1.823-3.821-3.237-1.893" fill="#FEFEFE"/>
<path d="m453.45 107.02c-0.86 3.966-0.976 7.88-0.435 11.897 0.321 2.38 3.935 1.367 3.616-0.997-0.446-3.312-0.273-6.643 0.434-9.903 0.511-2.353-3.103-3.358-3.615-0.997" fill="#FEFEFE"/>
<path d="m474.02 120.92c-3.148 4.791-6.298 9.581-9.446 14.372-1.329 2.022 1.916 3.903 3.238 1.892 3.148-4.79 6.298-9.581 9.446-14.371 1.329-2.023-1.916-3.903-3.238-1.893" fill="#FEFEFE"/>
<path d="m486.03 136.59c0.882 3.764 2.268 7.348 4.118 10.74 1.156 2.119 4.396 0.229 3.238-1.893-1.703-3.121-2.929-6.382-3.74-9.844-0.55-2.349-4.166-1.354-3.616 0.997" fill="#FEFEFE"/>
<path d="m300.06 263.34c0.882 3.764 2.268 7.348 4.118 10.74 1.156 2.119 4.396 0.229 3.238-1.893-1.703-3.121-2.929-6.382-3.74-9.844-0.55-2.349-4.166-1.354-3.616 0.997" fill="#FEFEFE"/>
<path d="m502.78 126.9c6.134 0.186 12.269 0.371 18.402 0.556 2.414 0.073 2.412-3.677 0-3.75-6.133-0.185-12.268-0.37-18.402-0.556-2.414-0.073-2.411 3.677 0 3.75" fill="#FEFEFE"/>
<path d="m250.5 95.619c4.79 1.291 9.579 2.582 14.369 3.873 2.332 0.629 3.328-2.988 0.996-3.616-4.789-1.291-9.578-2.582-14.368-3.873-2.333-0.629-3.328 2.987-0.997 3.616" fill="#FEFEFE"/>
<path d="m286.93 75.452v13.288c0 2.413 3.75 2.417 3.75 0v-13.288c0-2.413-3.75-2.417-3.75 0" fill="#FEFEFE"/>
<path d="m323.05 85.809c-2.655 3.83-4.524 8.074-5.574 12.612-0.543 2.349 3.071 3.351 3.616 0.997 0.985-4.263 2.703-8.121 5.195-11.716 1.379-1.988-1.87-3.865-3.237-1.893" fill="#FEFEFE"/>
<path d="m254.34 117.9c-1.308 4.152-2.042 8.398-2.249 12.745-0.115 2.412 3.636 2.406 3.75 0 0.191-4.02 0.907-7.911 2.115-11.748 0.726-2.308-2.893-3.295-3.616-0.997" fill="#FEFEFE"/>
<path d="m280.02 114.23c2.054 2.718 4.108 5.437 6.162 8.155 1.438 1.901 4.695 0.034 3.238-1.893-2.053-2.718-4.108-5.436-6.162-8.155-1.437-1.901-4.695-0.034-3.238 1.893" fill="#FEFEFE"/>
<path d="m311.11 119.83c-0.817 3.921-1.041 7.844-0.585 11.827 0.273 2.369 4.025 2.397 3.75 0-0.418-3.644-0.298-7.237 0.451-10.83 0.49-2.355-3.124-3.362-3.616-0.997" fill="#FEFEFE"/>
<path d="m345.57 104.8c2.396 0.637 4.793 1.274 7.19 1.911 2.335 0.62 3.331-2.996 0.998-3.617-2.398-0.636-4.794-1.273-7.192-1.91-2.334-0.62-3.33 2.996-0.996 3.616" fill="#FEFEFE"/>
<path d="m373.82 87.718v16.354c0 2.414 3.75 2.417 3.75 0v-16.354c0-2.413-3.75-2.417-3.75 0" fill="#FEFEFE"/>
<path d="m402.84 83.2 12.196 3.322c2.331 0.636 3.326-2.981 0.996-3.615l-12.196-3.323c-2.331-0.635-3.326 2.982-0.996 3.616" fill="#FEFEFE"/>
<path d="m345.55 125.11-4.233 17.341c-0.573 2.344 3.043 3.344 3.616 0.997 1.411-5.78 2.822-11.561 4.233-17.341 0.572-2.344-3.043-3.344-3.616-0.997" fill="#FEFEFE"/>
<path d="m368.14 130.49c2.504 5.769 6.519 10.53 11.656 14.133 1.981 1.388 3.857-1.862 1.893-3.238-4.619-3.239-8.07-7.625-10.312-12.788-0.958-2.208-4.19-0.3-3.237 1.893" fill="#FEFEFE"/>
<path d="m397.13 101.55c0.711 4.424 1.423 8.849 2.134 13.273 0.382 2.377 3.996 1.368 3.616-0.996-0.712-4.425-1.423-8.849-2.134-13.274-0.382-2.377-3.996-1.368-3.616 0.997" fill="#FEFEFE"/>
<path d="m415.22 111c1.853 3.178 3.705 6.356 5.557 9.535 1.214 2.084 4.457 0.198 3.238-1.893-1.853-3.178-3.704-6.356-5.557-9.535-1.215-2.084-4.457-0.198-3.238 1.893" fill="#FEFEFE"/>
<path d="m403.23 137.2c-1.409 4.169-2.018 8.472-1.829 12.868 0.103 2.404 3.854 2.417 3.75 0-0.176-4.086 0.386-7.998 1.694-11.871 0.775-2.291-2.845-3.275-3.615-0.997" fill="#FEFEFE"/>
<path d="m435.71 138.54c-2.804 2.291-5.019 5.206-6.467 8.525-0.956 2.19 2.275 4.101 3.238 1.892 1.34-3.069 3.288-5.646 5.88-7.766 1.87-1.527-0.797-4.167-2.651-2.651" fill="#FEFEFE"/>
<path d="m448.26 154.62c-1.282 5.122-1.191 10.282 0.315 15.346 0.688 2.308 4.308 1.325 3.617-0.997-1.323-4.442-1.443-8.853-0.316-13.352 0.587-2.342-3.029-3.341-3.616-0.997" fill="#FEFEFE"/>
<path d="m469.7 161.31c-0.443 4.761-0.888 9.521-1.331 14.281-0.225 2.402 3.527 2.387 3.75 0 0.443-4.76 0.888-9.52 1.331-14.281 0.225-2.401-3.527-2.386-3.75 0" fill="#FEFEFE"/>
<path d="m486.23 168.3c4.76 0.444 9.521 0.888 14.281 1.333 2.402 0.223 2.386-3.528 0-3.75-4.76-0.445-9.521-0.889-14.281-1.333-2.402-0.224-2.387 3.527 0 3.75" fill="#FEFEFE"/>
<path d="m486.46 186.41c-1.596 5.134-3.651 10.044-6.191 14.782-1.14 2.127 2.096 4.023 3.238 1.893 2.689-5.016 4.88-10.243 6.569-15.678 0.718-2.31-2.9-3.298-3.616-0.997" fill="#FEFEFE"/>
<path d="m500.88 203.17c6.16 1.228 12.32 2.455 18.479 3.683 2.358 0.469 3.367-3.144 0.998-3.617-6.161-1.227-12.32-2.455-18.48-3.682-2.356-0.469-3.365 3.144-0.997 3.616" fill="#FEFEFE"/>
<path d="m220.41 145.43c-1.704 4.77-3.407 9.54-5.11 14.31-0.813 2.277 2.808 3.257 3.616 0.997 1.703-4.77 3.406-9.54 5.11-14.31 0.813-2.277-2.809-3.257-3.616-0.997" fill="#FEFEFE"/>
<path d="m240.81 154.8 10.242 7.125c1.986 1.382 3.862-1.868 1.893-3.238l-10.242-7.125c-1.986-1.382-3.862 1.868-1.893 3.238" fill="#FEFEFE"/>
<path d="m211.56 191.56c5.47-1.994 10.939-3.988 16.41-5.982 2.249-0.82 1.277-4.445-0.997-3.616l-16.41 5.982c-2.249 0.82-1.277 4.445 0.997 3.616" fill="#FEFEFE"/>
<path d="m269.95 150.68c3.842 0.946 7.743 1.386 11.698 1.294 2.409-0.056 2.419-3.806 0-3.75-3.632 0.084-7.173-0.291-10.701-1.16-2.343-0.577-3.343 3.038-0.997 3.616" fill="#FEFEFE"/>
<path d="m273.62 175.62c-0.11 4.014 1.028 7.885 3.346 11.169 1.381 1.956 4.633 0.085 3.238-1.893-1.972-2.794-2.929-5.852-2.834-9.276 0.065-2.414-3.685-2.413-3.75 0" fill="#FEFEFE"/>
<path d="m302.02 162.93c4.937-3.779 9.504-7.937 13.667-12.559 1.611-1.789-1.032-4.45-2.651-2.652-3.94 4.373-8.234 8.395-12.91 11.973-1.89 1.447-0.024 4.705 1.894 3.238" fill="#FEFEFE"/>
<path d="m308.65 180.74c-0.105 4.391-0.849 8.62-2.21 12.792-0.751 2.3 2.869 3.286 3.616 0.998 1.462-4.482 2.231-9.078 2.344-13.79 0.058-2.414-3.692-2.413-3.75 0" fill="#FEFEFE"/>
<path d="m331.45 165.69c3.694 3.571 7.923 6.425 12.646 8.451 2.195 0.941 4.107-2.288 1.893-3.238-4.438-1.904-8.413-4.506-11.888-7.865-1.735-1.678-4.39 0.971-2.651 2.652" fill="#FEFEFE"/>
<path d="m357.46 158.77c1.989 5.811 3.979 11.622 5.968 17.433 0.777 2.27 4.401 1.295 3.616-0.997l-5.968-17.433c-0.777-2.27-4.401-1.295-3.616 0.997" fill="#FEFEFE"/>
<path d="m386.29 173.53 4.884 8.31c1.222 2.079 4.465 0.194 3.238-1.893-1.628-2.77-3.256-5.54-4.885-8.31-1.221-2.079-4.465-0.194-3.237 1.893" fill="#FEFEFE"/>
<path d="m419.53 171.57c-0.236 4.64-0.901 9.191-1.993 13.706-0.567 2.345 3.049 3.345 3.616 0.997 1.169-4.836 1.874-9.735 2.127-14.703 0.122-2.412-3.628-2.405-3.75 0" fill="#FEFEFE"/>
<path d="m429.87 206.02c7.743-4.258 15.486-8.515 23.23-12.773 2.116-1.163 0.226-4.402-1.892-3.238-7.744 4.258-15.487 8.515-23.232 12.773-2.115 1.163-0.224 4.403 1.894 3.238" fill="#FEFEFE"/>
<path d="m462.81 205.83c-0.635 4.096-1.27 8.192-1.904 12.288-0.367 2.36 3.247 3.378 3.616 0.997 0.635-4.097 1.269-8.192 1.904-12.288 0.366-2.361-3.247-3.378-3.616-0.997" fill="#FEFEFE"/>
<path d="m485.94 215.75c-5.818 6.45-11.637 12.9-17.455 19.351-1.612 1.788 1.031 4.448 2.652 2.651 5.818-6.45 11.636-12.9 17.454-19.35 1.614-1.788-1.031-4.448-2.651-2.652" fill="#FEFEFE"/>
<path d="m491.12 243.91c4.301 2.734 8.977 4.687 13.944 5.821 2.35 0.536 3.353-3.079 0.997-3.616-4.684-1.069-8.994-2.865-13.048-5.443-2.042-1.299-3.926 1.946-1.893 3.238" fill="#FEFEFE"/>
<path d="m483.83 263.31c-4.089 4.585-6.835 9.982-8.004 16.023-0.456 2.358 3.157 3.368 3.616 0.997 1.048-5.419 3.36-10.241 7.039-14.369 1.602-1.796-1.041-4.457-2.651-2.651" fill="#FEFEFE"/>
<path d="m496.78 279.77c2.593 3.441 5.846 6.166 9.801 7.917 2.186 0.968 4.097-2.263 1.892-3.238-3.332-1.475-6.253-3.65-8.456-6.572-1.434-1.904-4.691-0.037-3.237 1.893" fill="#FEFEFE"/>
<path d="m485 299.78c-1.014 5.793-2.027 11.587-3.041 17.381-0.413 2.36 3.2 3.373 3.616 0.997l3.041-17.382c0.413-2.359-3.2-3.373-3.616-0.996" fill="#FEFEFE"/>
<path d="m191.05 228.79c-0.389 4.425-0.777 8.85-1.166 13.275-0.212 2.404 3.54 2.39 3.75 0 0.389-4.425 0.777-8.85 1.166-13.275 0.211-2.404-3.54-2.39-3.75 0" fill="#FEFEFE"/>
<path d="m180.57 262c0.415 3.057 0.829 6.113 1.244 9.169 0.323 2.381 3.937 1.367 3.616-0.996-0.415-3.057-0.83-6.113-1.244-9.17-0.323-2.38-3.937-1.367-3.616 0.997" fill="#FEFEFE"/>
<path d="m84.472 374.85c-3.06 6.178-5.704 12.523-7.934 19.047-0.782 2.288 2.839 3.271 3.617 0.997 2.125-6.22 4.638-12.261 7.554-18.151 1.068-2.156-2.166-4.058-3.237-1.893" fill="#FEFEFE"/>
<path d="m113.54 374.66c4.096 1.343 8.19 2.686 12.286 4.027 2.299 0.754 3.283-2.866 0.997-3.616-4.095-1.342-8.19-2.684-12.286-4.026-2.299-0.754-3.284 2.866-0.997 3.615" fill="#FEFEFE"/>
<path d="m118.16 337.24c2.136 4.04 4.271 8.08 6.407 12.121 1.128 2.134 4.366 0.241 3.238-1.892-2.135-4.042-4.271-8.082-6.407-12.122-1.128-2.134-4.366-0.242-3.238 1.893" fill="#FEFEFE"/>
<path d="m149.07 332.31c4.025-4.184 8.609-7.593 13.767-10.259 2.144-1.108 0.25-4.345-1.893-3.237-5.423 2.802-10.294 6.446-14.525 10.845-1.674 1.739 0.974 4.394 2.651 2.651" fill="#FEFEFE"/>
<path d="m142.66 366.38 14.303 1.125c2.406 0.189 2.393-3.562 0-3.75l-14.303-1.125c-2.406-0.188-2.394 3.563 0 3.75" fill="#FEFEFE"/>
<path d="m171.17 343.82c4.485-2.275 8.971-4.55 13.455-6.825 2.153-1.092 0.257-4.328-1.892-3.238-4.486 2.275-8.97 4.549-13.456 6.825-2.153 1.092-0.256 4.328 1.893 3.238" fill="#FEFEFE"/>
<path d="m166.19 290.76c5.247 3.285 10.3 6.844 15.136 10.709 1.867 1.492 4.538-1.145 2.652-2.652-5.087-4.065-10.375-7.839-15.895-11.295-2.051-1.284-3.936 1.959-1.893 3.238" fill="#FEFEFE"/>
<path d="m195.53 314.94c5.488-3.338 11.196-6.193 17.182-8.53 2.223-0.868 1.255-4.495-0.997-3.616-6.286 2.454-12.311 5.401-18.078 8.908-2.058 1.252-0.176 4.496 1.893 3.238" fill="#FEFEFE"/>
<path d="m204.89 280.44c2.732-1.693 5.464-3.387 8.196-5.08 2.047-1.27 0.166-4.515-1.892-3.238-2.733 1.693-5.464 3.386-8.197 5.08-2.046 1.269-0.166 4.514 1.893 3.238" fill="#FEFEFE"/>
<path d="m212.6 250.32c4.118 0.888 8.235 1.776 12.353 2.665 2.353 0.508 3.358-3.106 0.997-3.616-4.118-0.888-8.236-1.777-12.353-2.665-2.352-0.508-3.358 3.106-0.997 3.616" fill="#FEFEFE"/>
<path d="m224.72 212.97c-0.653 2.393-1.307 4.785-1.961 7.178-0.637 2.331 2.981 3.326 3.616 0.997 0.654-2.393 1.308-4.785 1.961-7.178 0.637-2.331-2.979-3.326-3.616-0.997" fill="#FEFEFE"/>
<path d="m230.71 271.71c-0.263 3.916 1.071 7.572 3.612 10.532 1.575 1.835 4.216-0.828 2.652-2.651-1.914-2.231-2.709-4.972-2.514-7.881 0.161-2.409-3.59-2.399-3.75 0" fill="#FEFEFE"/>
<path d="m253.04 258.15c5.681 0.522 11.275 0.265 16.897-0.678 2.375-0.399 1.369-4.013-0.996-3.616-5.285 0.886-10.569 1.034-15.901 0.544-2.402-0.221-2.388 3.53 0 3.75" fill="#FEFEFE"/>
<path d="m297.71 219.82c-2.821 4.94-5.124 10.112-6.927 15.507-0.766 2.294 2.854 3.278 3.616 0.997 1.703-5.096 3.884-9.946 6.548-14.611 1.2-2.1-2.04-3.991-3.237-1.893" fill="#FEFEFE"/>
<path d="m332.58 201.39c2.527 3.222 5.056 6.443 7.584 9.665 1.488 1.897 4.125-0.773 2.651-2.652-2.528-3.221-5.055-6.443-7.584-9.665-1.488-1.897-4.126 0.774-2.651 2.652" fill="#FEFEFE"/>
<path d="m323.49 235.36c-0.943 4.245-1.201 8.502-0.691 12.824 0.279 2.368 4.032 2.396 3.75 0-0.471-3.986-0.315-7.906 0.557-11.827 0.523-2.351-3.093-3.356-3.616-0.997" fill="#FEFEFE"/>
<path d="m350.9 231.07c3.275 2.683 7.252 4.059 11.501 3.675 2.385-0.215 2.407-3.967 0-3.75-3.225 0.292-6.317-0.502-8.85-2.576-1.852-1.517-4.52 1.121-2.651 2.651" fill="#FEFEFE"/>
<path d="m355.27 196.47c3.341 3.517 7.28 6.334 11.706 8.323 2.184 0.981 4.093-2.25 1.894-3.239-4.16-1.868-7.807-4.429-10.949-7.736-1.665-1.753-4.314 0.902-2.651 2.652" fill="#FEFEFE"/>
<path d="m346.25 255.86c-2.01 4.785-4.02 9.569-6.03 14.354-0.933 2.222 2.694 3.191 3.616 0.996 2.01-4.784 4.02-9.569 6.03-14.353 0.933-2.222-2.694-3.192-3.616-0.997" fill="#FEFEFE"/>
<path d="m317.6 286.02v16.354c0 2.414 3.75 2.417 3.75 0v-16.354c0-2.413-3.75-2.417-3.75 0" fill="#FEFEFE"/>
<path d="m266.47 286.06c1.151 2.671 2.302 5.341 3.453 8.012 0.952 2.21 4.184 0.301 3.237-1.893-1.15-2.671-2.3-5.341-3.452-8.012-0.952-2.21-4.183-0.301-3.238 1.893" fill="#FEFEFE"/>
<path d="m295.13 311.52c-2.66 4.807-5.32 9.613-7.98 14.419-1.17 2.113 2.067 4.007 3.237 1.893 2.66-4.806 5.32-9.613 7.98-14.419 1.17-2.114-2.067-4.007-3.237-1.893" fill="#FEFEFE"/>
<path d="m244.09 301.88-5.089 16.362c-0.718 2.31 2.901 3.297 3.616 0.996 1.697-5.453 3.393-10.907 5.089-16.361 0.718-2.309-2.901-3.297-3.616-0.997" fill="#FEFEFE"/>
<path d="m215.32 328.45c1.094 4.597 3.413 8.695 6.766 12.021 1.715 1.701 4.368-0.95 2.651-2.653-2.921-2.896-4.85-6.364-5.801-10.364-0.558-2.347-4.176-1.354-3.616 0.996" fill="#FEFEFE"/>
<path d="m194.11 355.57c-1.981 4.458-3.963 8.915-5.944 13.372-0.973 2.186 2.257 4.096 3.237 1.893 1.981-4.457 3.964-8.914 5.945-13.372 0.972-2.186-2.259-4.096-3.238-1.893" fill="#FEFEFE"/>
<path d="m171.7 378.58c-0.966 4.534-1.42 9.105-1.325 13.742 0.049 2.41 3.799 2.418 3.75 0-0.088-4.306 0.294-8.529 1.191-12.746 0.501-2.353-3.113-3.359-3.616-0.996" fill="#FEFEFE"/>
<path d="m226.92 361.56c1.791 3.618 4.46 6.601 7.771 8.895 1.989 1.376 3.866-1.873 1.893-3.239-2.79-1.933-4.925-4.515-6.426-7.55-1.07-2.162-4.305-0.264-3.238 1.894" fill="#FEFEFE"/>
<path d="m262.56 329.3c-2.951 3.284-4.976 7.152-5.876 11.482-0.49 2.355 3.124 3.362 3.616 0.997 0.772-3.71 2.372-7.002 4.911-9.827 1.61-1.791-1.034-4.451-2.651-2.652" fill="#FEFEFE"/>
<path d="m258.5 366.72c2.651 5.368 5.757 10.447 9.329 15.253 1.423 1.915 4.68 0.048 3.237-1.893-3.571-4.805-6.677-9.884-9.328-15.253-1.068-2.164-4.304-0.265-3.238 1.893" fill="#FEFEFE"/>
<path d="m213.54 385.21c-2.63 4.337-4.691 8.948-6.189 13.793-0.715 2.311 2.903 3.299 3.616 0.996 1.408-4.552 3.341-8.822 5.81-12.896 1.255-2.069-1.986-3.956-3.237-1.893" fill="#FEFEFE"/>
<path d="m283.72 352.76 17.35 0.694c2.413 0.097 2.408-3.653 0-3.75l-17.35-0.694c-2.413-0.097-2.408 3.653 0 3.75" fill="#FEFEFE"/>
<path d="m318.37 335.96c4.747 2.683 9.217 5.753 13.394 9.259 1.836 1.542 4.502-1.098 2.652-2.652-4.421-3.711-9.128-7.004-14.153-9.844-2.104-1.19-3.997 2.049-1.893 3.237" fill="#FEFEFE"/>
<path d="m299.61 371.48c-2.055 7.152-4.108 14.305-6.162 21.457-0.668 2.323 2.95 3.315 3.616 0.997l6.161-21.457c0.668-2.324-2.949-3.316-3.615-0.997" fill="#FEFEFE"/>
<path d="m327.18 369.46c5.566 1.146 11.146 1.562 16.82 1.187 2.397-0.158 2.414-3.909 0-3.75-5.336 0.353-10.581 0.026-15.823-1.053-2.355-0.485-3.363 3.129-0.997 3.616" fill="#FEFEFE"/>
<path d="m340.87 317.49c3.409-1.7 6.818-3.4 10.228-5.1 2.159-1.077 0.262-4.313-1.894-3.238-3.408 1.7-6.817 3.4-10.227 5.1-2.16 1.077-0.262 4.312 1.893 3.238" fill="#FEFEFE"/>
<path d="m369.89 273.2 3.032 11.253c0.628 2.327 4.246 1.34 3.616-0.997l-3.032-11.253c-0.627-2.328-4.246-1.34-3.616 0.997" fill="#FEFEFE"/>
<path d="m358.48 327.92c0.628 4.937 2.85 9.341 6.703 12.549 1.842 1.533 4.509-1.106 2.651-2.652-3.037-2.528-5.101-5.939-5.604-9.897-0.301-2.361-4.055-2.391-3.75 0" fill="#FEFEFE"/>
<path d="m359.2 358.55c5.232 2.843 10.466 5.685 15.698 8.526 2.121 1.152 4.017-2.085 1.893-3.238-5.233-2.842-10.465-5.684-15.698-8.525-2.122-1.153-4.017 2.084-1.893 3.237" fill="#FEFEFE"/>
<path d="m361.52 381.08c-0.122 4.979 0.324 9.889 1.295 14.772 0.471 2.365 4.086 1.364 3.616-0.997-0.906-4.56-1.275-9.129-1.161-13.775 0.06-2.414-3.69-2.413-3.75 0" fill="#FEFEFE"/>
<path d="m390.89 346.8 18.451-8.057c2.207-0.963 0.3-4.195-1.892-3.238l-18.452 8.057c-2.207 0.963-0.299 4.195 1.893 3.238" fill="#FEFEFE"/>
<path d="m378.27 306.3c2.388 3.222 5.245 5.923 8.64 8.067 2.047 1.292 3.93-1.952 1.892-3.238-2.82-1.781-5.304-4.038-7.294-6.722-1.421-1.918-4.676-0.049-3.238 1.893" fill="#FEFEFE"/>
<path d="m396.66 293.04c4.014-5.454 8.958-10.055 14.651-13.714 2.024-1.301 0.146-4.548-1.892-3.238-6.261 4.024-11.588 9.067-15.997 15.059-1.432 1.947 1.821 3.819 3.238 1.893" fill="#FEFEFE"/>
<path d="m413.33 304.31c4.551 3.482 9.822 5.378 15.523 5.795 2.408 0.176 2.397-3.575 0-3.75-5.061-0.37-9.612-2.207-13.63-5.283-1.916-1.466-3.786 1.79-1.893 3.238" fill="#FEFEFE"/>
<path d="m425.23 328.85c2.273 4.583 5.048 8.823 8.271 12.794 1.521 1.874 4.161-0.793 2.652-2.652-3.018-3.717-5.559-7.748-7.685-12.035-1.073-2.162-4.308-0.264-3.238 1.893" fill="#FEFEFE"/>
<path d="m453.34 300.35c0.389 3.743 0.778 7.486 1.168 11.229 0.247 2.376 4 2.402 3.75 0-0.39-3.743-0.779-7.486-1.168-11.229-0.248-2.376-4-2.401-3.75 0" fill="#FEFEFE"/>
<path d="m449.75 334c5.81 1.991 11.62 3.982 17.431 5.974 2.288 0.783 3.27-2.837 0.997-3.617l-17.432-5.973c-2.287-0.784-3.269 2.837-0.996 3.616" fill="#FEFEFE"/>
<path d="m413.07 356.49c0.983 7.842 1.967 15.683 2.95 23.524 0.296 2.363 4.05 2.393 3.75 0-0.983-7.841-1.967-15.682-2.95-23.524-0.296-2.362-4.05-2.393-3.75 0" fill="#FEFEFE"/>
<path d="m249.87 185.28c-2.54-1.696-4.356-4.172-5.253-7.086-0.708-2.299-4.329-1.319-3.616 0.997 1.193 3.877 3.607 7.077 6.976 9.327 2.013 1.344 3.893-1.903 1.893-3.238" fill="#FEFEFE"/>
<path d="m347.95 288.45c3.503-0.474 7.007-0.948 10.51-1.423 2.381-0.322 1.367-3.935-0.997-3.616-3.503 0.475-7.007 0.949-10.51 1.424-2.381 0.322-1.367 3.935 0.997 3.615" fill="#FEFEFE"/>
<path d="m374.55 250.06c3.559-1.747 6.991-3.707 10.305-5.883 2.008-1.319 0.132-4.568-1.893-3.238-3.313 2.176-6.746 4.136-10.305 5.883-2.166 1.064-0.267 4.299 1.893 3.238" fill="#FEFEFE"/>
<path d="m382.65 200.6 1.816 15.521c0.278 2.369 4.031 2.397 3.75 0l-1.816-15.521c-0.277-2.368-4.03-2.396-3.75 0" fill="#FEFEFE"/>
<path d="m405.2 209.37c2.041 2.444 3.903 5.011 5.614 7.696 1.293 2.03 4.54 0.151 3.239-1.892-1.882-2.953-3.957-5.768-6.201-8.455-1.548-1.855-4.189 0.81-2.652 2.651" fill="#FEFEFE"/>
<path d="m398.17 234.92c3.615 1.929 7.23 3.858 10.846 5.788 2.129 1.136 4.025-2.1 1.892-3.238l-10.845-5.788c-2.129-1.136-4.026 2.1-1.893 3.238" fill="#FEFEFE"/>
<path d="m387.49 259.74c1.231 0.944 2.38 2.095 3.322 3.327 0.615 0.803 1.615 1.229 2.566 0.673 0.79-0.463 1.291-1.756 0.672-2.565-1.365-1.786-2.883-3.306-4.666-4.673-0.805-0.616-2.1-0.124-2.566 0.673-0.565 0.966-0.134 1.947 0.672 2.565" fill="#FEFEFE"/>
<path d="m424.38 286.7c4.506-2.154 9.011-4.31 13.517-6.465 2.175-1.041 0.276-4.275-1.893-3.238-4.506 2.155-9.012 4.31-13.517 6.466-2.176 1.041-0.276 4.275 1.893 3.237" fill="#FEFEFE"/>
<path d="m416.01 255.72 8.385 5.67c2.004 1.356 3.883-1.892 1.892-3.237-2.795-1.891-5.59-3.781-8.384-5.671-2.005-1.356-3.883 1.892-1.893 3.238" fill="#FEFEFE"/>
<path d="m425.45 228.54c5.326 0.067 10.485-0.816 15.474-2.69 2.238-0.841 1.269-4.467-0.996-3.616-4.688 1.761-9.469 2.619-14.478 2.556-2.413-0.03-2.415 3.72 0 3.75" fill="#FEFEFE"/>
<path d="m440.44 241.56c2.992 3.507 5.984 7.013 8.977 10.52 1.569 1.838 4.211-0.825 2.651-2.652-2.992-3.506-5.984-7.013-8.977-10.519-1.568-1.839-4.211 0.824-2.651 2.651" fill="#FEFEFE"/>
<path d="m460.56 273.67c-0.872-2.948-1.186-5.977-0.773-9.035 0.318-2.36-3.295-3.381-3.617-0.997-0.505 3.749-0.302 7.391 0.774 11.029 0.683 2.309 4.303 1.325 3.616-0.997" fill="#FEFEFE"/>
<path d="m113.74 245.91c21.306 7.19 32.717-34.911 14.433-48.577-16.446-12.292-31.274 7.651-28.142 28.418 1.378 9.133 6.52 17.733 13.709 20.159" fill="#231F20"/>
<path d="m254.43 245.91c21.306 7.19 32.717-34.911 14.433-48.577-16.446-12.292-31.274 7.651-28.142 28.418 1.378 9.133 6.52 17.733 13.709 20.159" fill="#231F20"/>
<path d="m140.34 314.8c7.625 15.492 24.097 26.098 41.458 26.109 17.363 0.012 33.845-10.578 41.49-26.059 2.84-5.751-5.782-10.823-8.635-5.047-6.133 12.421-18.792 21.115-32.855 21.106s-26.707-8.728-32.823-21.156c-2.842-5.774-11.469-0.713-8.635 5.047" fill="#231F20"/>
<path d="m117.46 203.77c2.622 0.403 4.656 2.819 3.425 7.389-0.501 1.857-1.176 3.738-2.504 5.128s-3.458 2.17-5.233 1.431c-2.34-0.973-3.045-3.941-3.055-6.477-0.019-5.39 4.124-7.97 7.367-7.471" fill="#FEFEFE"/>
<path d="m266.52 203.77c2.622 0.403 4.655 2.819 3.424 7.389-0.5 1.857-1.175 3.738-2.504 5.128-1.328 1.39-3.457 2.17-5.232 1.431-2.341-0.973-3.046-3.941-3.055-6.477-0.02-5.39 4.124-7.97 7.367-7.471" fill="#FEFEFE"/>
<path d="m53.012 138.55c76.25-0.729 152.5-1.459 228.75-2.188 21.881-0.21 43.762-0.419 65.642-0.628 6.431-0.062 6.447-10.062 0-10-76.25 0.729-152.5 1.459-228.75 2.188-21.881 0.21-43.761 0.419-65.642 0.628-6.432 0.062-6.447 10.062 0 10" fill="#231F20"/>
<path d="m389 119.76c29.02-26.02 58.967-51 89.828-74.809 5.024-3.875 0.05-12.566-5.047-8.634-31.541 24.333-62.192 49.777-91.852 76.372-4.802 4.305 2.29 11.358 7.071 7.071" fill="#231F20"/>
<path d="m373.25 155.18c1.989 67.497 3.979 134.99 5.968 202.49 0.189 6.421 10.19 6.448 10 0-1.989-67.497-3.979-134.99-5.968-202.49-0.188-6.421-10.189-6.448-10 0" fill="#231F20"/>
</g>
</g>
</g>
</svg>
